<svg width="66" height="66" viewBox="0 0 66 66" fill="none" xmlns="http://www.w3.org/2000/svg">
<g id="CloseIcon">
<g id="icon--glow" filter="url(#filter0_f_26_12)">
<path d="M20.7268 20.7268C21.1924 20.2614 21.8237 20 22.4819 20C23.1402 20 23.7715 20.2614 24.237 20.7268L33.015 29.5048L41.793 20.7268C42.2612 20.2746 42.8882 20.0244 43.5391 20.0301C44.19 20.0357 44.8126 20.2968 45.2729 20.7571C45.7332 21.2173 45.9943 21.84 45.9999 22.4909C46.0056 23.1418 45.7553 23.7688 45.3031 24.237L36.5252 33.015L45.3031 41.793C45.7553 42.2612 46.0056 42.8882 45.9999 43.5391C45.9943 44.19 45.7332 44.8126 45.2729 45.2729C44.8126 45.7332 44.19 45.9943 43.5391 45.9999C42.8882 46.0056 42.2612 45.7553 41.793 45.3031L33.015 36.5252L24.237 45.3031C23.7688 45.7553 23.1418 46.0056 22.4909 45.9999C21.84 45.9943 21.2173 45.7332 20.7571 45.2729C20.2968 44.8126 20.0357 44.19 20.0301 43.5391C20.0244 42.8882 20.2746 42.2612 20.7268 41.793L29.5048 33.015L20.7268 24.237C20.2614 23.7715 20 23.1402 20 22.4819C20 21.8237 20.2614 21.1924 20.7268 20.7268V20.7268Z" fill="url(#paint0_linear_26_12)" fill-opacity="0.4"/>
</g>
<path id="icon" d="M20.7268 20.7268C21.1924 20.2614 21.8237 20 22.4819 20C23.1402 20 23.7715 20.2614 24.237 20.7268L33.015 29.5048L41.793 20.7268C42.2612 20.2746 42.8882 20.0244 43.5391 20.0301C44.19 20.0357 44.8126 20.2968 45.2729 20.7571C45.7332 21.2173 45.9943 21.84 45.9999 22.4909C46.0056 23.1418 45.7553 23.7688 45.3031 24.237L36.5252 33.015L45.3031 41.793C45.7553 42.2612 46.0056 42.8882 45.9999 43.5391C45.9943 44.19 45.7332 44.8126 45.2729 45.2729C44.8126 45.7332 44.19 45.9943 43.5391 45.9999C42.8882 46.0056 42.2612 45.7553 41.793 45.3031L33.015 36.5252L24.237 45.3031C23.7688 45.7553 23.1418 46.0056 22.4909 45.9999C21.84 45.9943 21.2173 45.7332 20.7571 45.2729C20.2968 44.8126 20.0357 44.19 20.0301 43.5391C20.0244 42.8882 20.2746 42.2612 20.7268 41.793L29.5048 33.015L20.7268 24.237C20.2614 23.7715 20 23.1402 20 22.4819C20 21.8237 20.2614 21.1924 20.7268 20.7268V20.7268Z" fill="url(#paint1_linear_26_12)"/>
</g>
<defs>
<filter id="filter0_f_26_12" x="0" y="0" width="66" height="66" filterUnits="userSpaceOnUse" color-interpolation-filters="sRGB">
<feFlood flood-opacity="0" result="BackgroundImageFix"/>
<feBlend mode="normal" in="SourceGraphic" in2="BackgroundImageFix" result="shape"/>
<feGaussianBlur stdDeviation="10" result="effect1_foregroundBlur_26_12"/>
</filter>
<linearGradient id="paint0_linear_26_12" x1="33" y1="20" x2="33" y2="46" gradientUnits="userSpaceOnUse">
<stop stop-color="#EA1C24"/>
<stop offset="1" stop-color="#FB624C"/>
</linearGradient>
<linearGradient id="paint1_linear_26_12" x1="33" y1="20" x2="33" y2="46" gradientUnits="userSpaceOnUse">
<stop stop-color="#EA1C24"/>
<stop offset="1" stop-color="#FB624C"/>
</linearGradient>
</defs>
</svg>
