<svg width="30" height="32" viewBox="0 0 30 32" fill="none" xmlns="http://www.w3.org/2000/svg">
<g id="DownArrow">
<path id="icon" d="M14.0057 16.0154L5.18689 7.82651C4.57735 7.26051 4.57735 6.34528 5.18689 5.7853L6.65237 4.4245C7.26191 3.8585 8.24754 3.8585 8.8506 4.4245L15.1016 10.229L21.3526 4.4245C21.9621 3.8585 22.9478 3.8585 23.5508 4.4245L25.0293 5.77928C25.6388 6.34528 25.6388 7.26051 25.0293 7.82049L16.2104 16.0094C15.6009 16.5814 14.6153 16.5814 14.0057 16.0154ZM16.2104 27.5762L25.0293 19.3873C25.6388 18.8213 25.6388 17.9061 25.0293 17.3461L23.5638 15.9853C22.9542 15.4193 21.9686 15.4193 21.3656 15.9853L15.1081 21.7838L8.85708 15.9793C8.24754 15.4133 7.26191 15.4133 6.65886 15.9793L5.18689 17.3401C4.57735 17.9061 4.57735 18.8213 5.18689 19.3813L14.0057 27.5702C14.6153 28.1422 15.6009 28.1422 16.2104 27.5762Z" fill="url(#paint0_linear_135_5)"/>
<g id="icon--glow" filter="url(#filter0_f_135_5)">
<path d="M14.0057 16.0154L5.18689 7.82651C4.57735 7.26051 4.57735 6.34528 5.18689 5.7853L6.65237 4.4245C7.26191 3.8585 8.24754 3.8585 8.8506 4.4245L15.1016 10.229L21.3526 4.4245C21.9621 3.8585 22.9478 3.8585 23.5508 4.4245L25.0293 5.77928C25.6388 6.34528 25.6388 7.26051 25.0293 7.82049L16.2104 16.0094C15.6009 16.5814 14.6153 16.5814 14.0057 16.0154ZM16.2104 27.5762L25.0293 19.3873C25.6388 18.8213 25.6388 17.9061 25.0293 17.3461L23.5638 15.9853C22.9542 15.4193 21.9686 15.4193 21.3656 15.9853L15.1081 21.7838L8.85708 15.9793C8.24754 15.4133 7.26191 15.4133 6.65886 15.9793L5.18689 17.3401C4.57735 17.9061 4.57735 18.8213 5.18689 19.3813L14.0057 27.5702C14.6153 28.1422 15.6009 28.1422 16.2104 27.5762Z" fill="url(#paint1_linear_135_5)"/>
</g>
</g>
<defs>
<filter id="filter0_f_135_5" x="0.729736" y="0" width="28.7566" height="32" filterUnits="userSpaceOnUse" color-interpolation-filters="sRGB">
<feFlood flood-opacity="0" result="BackgroundImageFix"/>
<feBlend mode="normal" in="SourceGraphic" in2="BackgroundImageFix" result="shape"/>
<feGaussianBlur stdDeviation="2" result="effect1_foregroundBlur_135_5"/>
</filter>
<linearGradient id="paint0_linear_135_5" x1="15.1081" y1="4" x2="15.1081" y2="28" gradientUnits="userSpaceOnUse">
<stop stop-color="#EA1C24"/>
<stop offset="1" stop-color="#FB624C"/>
</linearGradient>
<linearGradient id="paint1_linear_135_5" x1="15.1081" y1="4" x2="15.1081" y2="28" gradientUnits="userSpaceOnUse">
<stop stop-color="#EA1C24"/>
<stop offset="1" stop-color="#FB624C"/>
</linearGradient>
</defs>
</svg>
