<svg width="25" height="26" viewBox="0 0 25 26" fill="none" xmlns="http://www.w3.org/2000/svg">
<g id="DownArrow">
<path id="icon" d="M11.6867 13.0116L5.0726 6.86988C4.61545 6.44539 4.61545 5.75896 5.0726 5.33898L6.17171 4.31837C6.62887 3.89388 7.36809 3.89388 7.82038 4.31837L12.5086 8.67175L17.1969 4.31837C17.654 3.89388 18.3933 3.89388 18.8455 4.31837L19.9544 5.33446C20.4115 5.75896 20.4115 6.44538 19.9544 6.86537L13.3403 13.0071C12.8831 13.4361 12.1439 13.4361 11.6867 13.0116ZM13.3403 21.6822L19.9544 15.5405C20.4115 15.116 20.4115 14.4296 19.9544 14.0096L18.8553 12.989C18.3981 12.5645 17.6589 12.5645 17.2066 12.989L12.5135 17.3378L7.82524 12.9845C7.36809 12.56 6.62887 12.56 6.17658 12.9845L5.0726 14.0051C4.61545 14.4296 4.61545 15.116 5.0726 15.536L11.6867 21.6777C12.1439 22.1067 12.8831 22.1067 13.3403 21.6822Z" fill="url(#paint0_linear_135_5)"/>
<g id="icon--glow" filter="url(#filter0_f_135_5)">
<path d="M11.6867 13.0116L5.0726 6.86988C4.61545 6.44539 4.61545 5.75896 5.0726 5.33898L6.17171 4.31837C6.62887 3.89388 7.36809 3.89388 7.82038 4.31837L12.5086 8.67175L17.1969 4.31837C17.654 3.89388 18.3933 3.89388 18.8455 4.31837L19.9544 5.33446C20.4115 5.75896 20.4115 6.44538 19.9544 6.86537L13.3403 13.0071C12.8831 13.4361 12.1439 13.4361 11.6867 13.0116ZM13.3403 21.6822L19.9544 15.5405C20.4115 15.116 20.4115 14.4296 19.9544 14.0096L18.8553 12.989C18.3981 12.5645 17.6589 12.5645 17.2066 12.989L12.5135 17.3378L7.82524 12.9845C7.36809 12.56 6.62887 12.56 6.17658 12.9845L5.0726 14.0051C4.61545 14.4296 4.61545 15.116 5.0726 15.536L11.6867 21.6777C12.1439 22.1067 12.8831 22.1067 13.3403 21.6822Z" fill="url(#paint1_linear_135_5)"/>
</g>
</g>
<defs>
<filter id="filter0_f_135_5" x="0.729736" y="0" width="23.5676" height="26" filterUnits="userSpaceOnUse" color-interpolation-filters="sRGB">
<feFlood flood-opacity="0" result="BackgroundImageFix"/>
<feBlend mode="normal" in="SourceGraphic" in2="BackgroundImageFix" result="shape"/>
<feGaussianBlur stdDeviation="2" result="effect1_foregroundBlur_135_5"/>
</filter>
<linearGradient id="paint0_linear_135_5" x1="12.5135" y1="4" x2="12.5135" y2="22" gradientUnits="userSpaceOnUse">
<stop stop-color="#EA1C24"/>
<stop offset="1" stop-color="#FB624C"/>
</linearGradient>
<linearGradient id="paint1_linear_135_5" x1="12.5135" y1="4" x2="12.5135" y2="22" gradientUnits="userSpaceOnUse">
<stop stop-color="#EA1C24"/>
<stop offset="1" stop-color="#FB624C"/>
</linearGradient>
</defs>
</svg>
