<svg width="31" height="36" viewBox="0 0 31 36" fill="none" xmlns="http://www.w3.org/2000/svg">
<g id="DownArrow">
<path id="icon" d="M14.049 18.018L4.49525 8.46426C3.83492 7.80393 3.83492 6.73616 4.49525 6.08285L6.08285 4.49525C6.74319 3.83492 7.81096 3.83492 8.46426 4.49525L15.2362 11.2672L22.0081 4.49525C22.6684 3.83492 23.7362 3.83492 24.3895 4.49525L25.9912 6.07583C26.6515 6.73616 26.6515 7.80393 25.9912 8.45724L16.4374 18.011C15.7771 18.6783 14.7093 18.6783 14.049 18.018ZM16.4374 31.5056L25.9912 21.9519C26.6515 21.2916 26.6515 20.2238 25.9912 19.5705L24.4035 17.9829C23.7432 17.3225 22.6754 17.3225 22.0221 17.9829L15.2432 24.7478L8.47129 17.9758C7.81096 17.3155 6.74319 17.3155 6.08988 17.9758L4.49525 19.5635C3.83492 20.2238 3.83492 21.2916 4.49525 21.9449L14.049 31.4986C14.7093 32.166 15.7771 32.166 16.4374 31.5056Z" fill="url(#paint0_linear_135_5)"/>
<g id="icon--glow" filter="url(#filter0_f_135_5)">
<path d="M14.049 18.018L4.49525 8.46426C3.83492 7.80393 3.83492 6.73616 4.49525 6.08285L6.08285 4.49525C6.74319 3.83492 7.81096 3.83492 8.46426 4.49525L15.2362 11.2672L22.0081 4.49525C22.6684 3.83492 23.7362 3.83492 24.3895 4.49525L25.9912 6.07583C26.6515 6.73616 26.6515 7.80393 25.9912 8.45724L16.4374 18.011C15.7771 18.6783 14.7093 18.6783 14.049 18.018ZM16.4374 31.5056L25.9912 21.9519C26.6515 21.2916 26.6515 20.2238 25.9912 19.5705L24.4035 17.9829C23.7432 17.3225 22.6754 17.3225 22.0221 17.9829L15.2432 24.7478L8.47129 17.9758C7.81096 17.3155 6.74319 17.3155 6.08988 17.9758L4.49525 19.5635C3.83492 20.2238 3.83492 21.2916 4.49525 21.9449L14.049 31.4986C14.7093 32.166 15.7771 32.166 16.4374 31.5056Z" fill="url(#paint1_linear_135_5)"/>
</g>
</g>
<defs>
<filter id="filter0_f_135_5" x="0" y="0" width="30.4863" height="36" filterUnits="userSpaceOnUse" color-interpolation-filters="sRGB">
<feFlood flood-opacity="0" result="BackgroundImageFix"/>
<feBlend mode="normal" in="SourceGraphic" in2="BackgroundImageFix" result="shape"/>
<feGaussianBlur stdDeviation="2" result="effect1_foregroundBlur_135_5"/>
</filter>
<linearGradient id="paint0_linear_135_5" x1="15.2432" y1="4" x2="15.2432" y2="32" gradientUnits="userSpaceOnUse">
<stop stop-color="#EA1C24"/>
<stop offset="1" stop-color="#FB624C"/>
</linearGradient>
<linearGradient id="paint1_linear_135_5" x1="15.2432" y1="4" x2="15.2432" y2="32" gradientUnits="userSpaceOnUse">
<stop stop-color="#EA1C24"/>
<stop offset="1" stop-color="#FB624C"/>
</linearGradient>
</defs>
</svg>
