<svg width="26" height="26" viewBox="0 0 26 26" fill="none" xmlns="http://www.w3.org/2000/svg">
<path d="M23.7153 2.47324C25.1235 3.99667 25.9398 6.04522 25.9968 8.19894C26.0538 10.3527 25.3473 12.4484 24.0221 14.0566L12.9996 26L1.97961 14.0566C0.652814 12.4476 -0.0543612 10.35 0.00326423 8.19458C0.0608897 6.03912 0.878944 3.98931 2.28948 2.46597C3.70001 0.942637 5.596 0.0613663 7.58819 0.00308577C9.58038 -0.0551948 11.5176 0.713937 13.0022 2.15258C14.4873 0.714084 16.4252 -0.054293 18.4177 0.00534649C20.4102 0.064986 22.306 0.948112 23.7153 2.47324V2.47324ZM4.12562 4.46334C3.19528 5.46993 2.65221 6.82072 2.6059 8.2434C2.55959 9.66609 3.01347 11.0549 3.87606 12.1298L13.0009 22.0184L22.1256 12.1312C22.9883 11.0559 23.442 9.66662 23.3953 8.2436C23.3485 6.82057 22.8048 5.46967 21.8737 4.46335C20.9427 3.45702 19.6936 2.87014 18.3784 2.82107C17.0632 2.772 15.7797 3.26439 14.7868 4.19893L9.32494 10.1102L7.48568 8.12147L11.1577 4.14549L11.0511 4.04845C10.0519 3.18326 8.79289 2.7472 7.51508 2.82375C6.23728 2.9003 5.03045 3.48409 4.12562 4.46334V4.46334Z" fill="url(#paint0_linear_128_8)"/>
<defs>
<linearGradient id="paint0_linear_128_8" x1="0" y1="0" x2="20.9266" y2="24.8968" gradientUnits="userSpaceOnUse">
<stop stop-color="#FB624C"/>
<stop offset="1" stop-color="#EA1C24"/>
</linearGradient>
</defs>
</svg>
