<svg width="36" height="36" viewBox="0 0 36 36" fill="none" xmlns="http://www.w3.org/2000/svg">
<g id="LightSearchIcon">
<path id="icon" fill-rule="evenodd" clip-rule="evenodd" d="M16.5654 7.72039C14.2198 7.72039 11.9703 8.65222 10.3117 10.3109C8.65306 11.9695 7.72127 14.2192 7.72127 16.5649C7.72127 18.9106 8.65306 21.1602 10.3117 22.8188C11.9703 24.4775 14.2198 25.4093 16.5654 25.4093C18.911 25.4093 21.1606 24.4775 22.8192 22.8188C24.4778 21.1602 25.4095 18.9106 25.4095 16.5649C25.4095 14.2192 24.4778 11.9695 22.8192 10.3109C21.1606 8.65222 18.911 7.72039 16.5654 7.72039ZM5 16.5649C5.00016 14.7206 5.44134 12.9031 6.28675 11.264C7.13215 9.62488 8.35726 8.21173 9.85986 7.14242C11.3625 6.07311 13.099 5.37866 14.9245 5.117C16.7501 4.85534 18.6118 5.03405 20.3542 5.63824C22.0967 6.24242 23.6694 7.25456 24.9411 8.59019C26.2129 9.92583 27.1468 11.5462 27.6649 13.3162C28.1831 15.0862 28.2705 16.9545 27.9198 18.7651C27.5691 20.5758 26.7905 22.2763 25.649 23.7248L30.6181 28.694C30.8659 28.9507 31.003 29.2944 30.9999 29.6511C30.9968 30.0079 30.8538 30.3492 30.6015 30.6015C30.3492 30.8537 30.0079 30.9968 29.6512 30.9999C29.2944 31.003 28.9507 30.8659 28.6941 30.618L23.7251 25.6488C22.0197 26.9932 19.9703 27.8302 17.8114 28.0642C15.6525 28.2981 13.4713 27.9195 11.5176 26.9717C9.5638 26.0239 7.91633 24.5451 6.7637 22.7047C5.61107 20.8642 4.99985 18.7365 5 16.5649ZM15.2048 11.8025C15.2048 11.4416 15.3481 11.0955 15.6033 10.8403C15.8585 10.5851 16.2045 10.4418 16.5654 10.4418C18.1893 10.4418 19.7467 11.0869 20.8949 12.2352C22.0432 13.3835 22.6883 14.9409 22.6883 16.5649C22.6883 16.9257 22.5449 17.2718 22.2897 17.527C22.0346 17.7822 21.6885 17.9255 21.3276 17.9255C20.9668 17.9255 20.6207 17.7822 20.3655 17.527C20.1103 17.2718 19.967 16.9257 19.967 16.5649C19.967 15.6627 19.6086 14.7974 18.9707 14.1595C18.3328 13.5215 17.4676 13.1631 16.5654 13.1631C16.2045 13.1631 15.8585 13.0198 15.6033 12.7646C15.3481 12.5094 15.2048 12.1633 15.2048 11.8025Z" fill="url(#paint0_linear_52_73)"/>
<g id="icon--glow" filter="url(#filter0_f_52_73)">
<path fill-rule="evenodd" clip-rule="evenodd" d="M16.5654 7.72039C14.2198 7.72039 11.9703 8.65222 10.3117 10.3109C8.65306 11.9695 7.72127 14.2192 7.72127 16.5649C7.72127 18.9106 8.65306 21.1602 10.3117 22.8188C11.9703 24.4775 14.2198 25.4093 16.5654 25.4093C18.911 25.4093 21.1606 24.4775 22.8192 22.8188C24.4778 21.1602 25.4095 18.9106 25.4095 16.5649C25.4095 14.2192 24.4778 11.9695 22.8192 10.3109C21.1606 8.65222 18.911 7.72039 16.5654 7.72039ZM5 16.5649C5.00016 14.7206 5.44134 12.9031 6.28675 11.264C7.13215 9.62488 8.35726 8.21173 9.85986 7.14242C11.3625 6.07311 13.099 5.37866 14.9245 5.117C16.7501 4.85534 18.6118 5.03405 20.3542 5.63824C22.0967 6.24242 23.6694 7.25456 24.9411 8.59019C26.2129 9.92583 27.1468 11.5462 27.6649 13.3162C28.1831 15.0862 28.2705 16.9545 27.9198 18.7651C27.5691 20.5758 26.7905 22.2763 25.649 23.7248L30.6181 28.694C30.8659 28.9507 31.003 29.2944 30.9999 29.6511C30.9968 30.0079 30.8538 30.3492 30.6015 30.6015C30.3492 30.8537 30.0079 30.9968 29.6512 30.9999C29.2944 31.003 28.9507 30.8659 28.6941 30.618L23.7251 25.6488C22.0197 26.9932 19.9703 27.8302 17.8114 28.0642C15.6525 28.2981 13.4713 27.9195 11.5176 26.9717C9.5638 26.0239 7.91633 24.5451 6.7637 22.7047C5.61107 20.8642 4.99985 18.7365 5 16.5649ZM15.2048 11.8025C15.2048 11.4416 15.3481 11.0955 15.6033 10.8403C15.8585 10.5851 16.2045 10.4418 16.5654 10.4418C18.1893 10.4418 19.7467 11.0869 20.8949 12.2352C22.0432 13.3835 22.6883 14.9409 22.6883 16.5649C22.6883 16.9257 22.5449 17.2718 22.2897 17.527C22.0346 17.7822 21.6885 17.9255 21.3276 17.9255C20.9668 17.9255 20.6207 17.7822 20.3655 17.527C20.1103 17.2718 19.967 16.9257 19.967 16.5649C19.967 15.6627 19.6086 14.7974 18.9707 14.1595C18.3328 13.5215 17.4676 13.1631 16.5654 13.1631C16.2045 13.1631 15.8585 13.0198 15.6033 12.7646C15.3481 12.5094 15.2048 12.1633 15.2048 11.8025Z" fill="url(#paint1_linear_52_73)"/>
</g>
</g>
<defs>
<filter id="filter0_f_52_73" x="0" y="0" width="36" height="36" filterUnits="userSpaceOnUse" color-interpolation-filters="sRGB">
<feFlood flood-opacity="0" result="BackgroundImageFix"/>
<feBlend mode="normal" in="SourceGraphic" in2="BackgroundImageFix" result="shape"/>
<feGaussianBlur stdDeviation="2.5" result="effect1_foregroundBlur_52_73"/>
</filter>
<linearGradient id="paint0_linear_52_73" x1="18" y1="5" x2="18" y2="31" gradientUnits="userSpaceOnUse">
<stop stop-color="#EA1C24"/>
<stop offset="1" stop-color="#C11219"/>
</linearGradient>
<linearGradient id="paint1_linear_52_73" x1="18" y1="5" x2="18" y2="31" gradientUnits="userSpaceOnUse">
<stop stop-color="#EA1C24"/>
<stop offset="1" stop-color="#C11219"/>
</linearGradient>
</defs>
</svg>
