<svg width="34" height="34" viewBox="0 0 34 34" fill="none" xmlns="http://www.w3.org/2000/svg">
<g id="LightCloseIcon">
<g id="icon--glow" filter="url(#filter0_f_150_5)">
<path d="M4.72683 4.72683C5.19236 4.26144 5.82367 4 6.48193 4C7.14018 4 7.77149 4.26144 8.23702 4.72683L17.015 13.5048L25.793 4.72683C26.2612 4.27463 26.8882 4.02441 27.5391 4.03007C28.19 4.03572 28.8126 4.2968 29.2729 4.75707C29.7332 5.21734 29.9943 5.83997 29.9999 6.49086C30.0056 7.14175 29.7553 7.76883 29.3031 8.23702L20.5252 17.015L29.3031 25.793C29.7553 26.2612 30.0056 26.8882 29.9999 27.5391C29.9943 28.19 29.7332 28.8126 29.2729 29.2729C28.8126 29.7332 28.19 29.9943 27.5391 29.9999C26.8882 30.0056 26.2612 29.7553 25.793 29.3031L17.015 20.5252L8.23702 29.3031C7.76883 29.7553 7.14175 30.0056 6.49086 29.9999C5.83997 29.9943 5.21734 29.7332 4.75707 29.2729C4.2968 28.8126 4.03572 28.19 4.03007 27.5391C4.02441 26.8882 4.27463 26.2612 4.72683 25.793L13.5048 17.015L4.72683 8.23702C4.26144 7.77149 4 7.14018 4 6.48193C4 5.82367 4.26144 5.19236 4.72683 4.72683V4.72683Z" fill="url(#paint0_linear_150_5)" fill-opacity="0.4"/>
</g>
<path id="icon" d="M4.72683 4.72683C5.19236 4.26144 5.82367 4 6.48193 4C7.14018 4 7.77149 4.26144 8.23702 4.72683L17.015 13.5048L25.793 4.72683C26.2612 4.27463 26.8882 4.02441 27.5391 4.03007C28.19 4.03572 28.8126 4.2968 29.2729 4.75707C29.7332 5.21734 29.9943 5.83997 29.9999 6.49086C30.0056 7.14175 29.7553 7.76883 29.3031 8.23702L20.5252 17.015L29.3031 25.793C29.7553 26.2612 30.0056 26.8882 29.9999 27.5391C29.9943 28.19 29.7332 28.8126 29.2729 29.2729C28.8126 29.7332 28.19 29.9943 27.5391 29.9999C26.8882 30.0056 26.2612 29.7553 25.793 29.3031L17.015 20.5252L8.23702 29.3031C7.76883 29.7553 7.14175 30.0056 6.49086 29.9999C5.83997 29.9943 5.21734 29.7332 4.75707 29.2729C4.2968 28.8126 4.03572 28.19 4.03007 27.5391C4.02441 26.8882 4.27463 26.2612 4.72683 25.793L13.5048 17.015L4.72683 8.23702C4.26144 7.77149 4 7.14018 4 6.48193C4 5.82367 4.26144 5.19236 4.72683 4.72683V4.72683Z" fill="url(#paint1_linear_150_5)"/>
</g>
<defs>
<filter id="filter0_f_150_5" x="0" y="0" width="34" height="34" filterUnits="userSpaceOnUse" color-interpolation-filters="sRGB">
<feFlood flood-opacity="0" result="BackgroundImageFix"/>
<feBlend mode="normal" in="SourceGraphic" in2="BackgroundImageFix" result="shape"/>
<feGaussianBlur stdDeviation="2" result="effect1_foregroundBlur_150_5"/>
</filter>
<linearGradient id="paint0_linear_150_5" x1="17" y1="4" x2="17" y2="30" gradientUnits="userSpaceOnUse">
<stop stop-color="#EA1C24"/>
<stop offset="1" stop-color="#C11219"/>
</linearGradient>
<linearGradient id="paint1_linear_150_5" x1="17" y1="4" x2="17" y2="30" gradientUnits="userSpaceOnUse">
<stop stop-color="#EA1C24"/>
<stop offset="1" stop-color="#C11219"/>
</linearGradient>
</defs>
</svg>
