<svg width="29" height="32" viewBox="0 0 29 32" fill="none" xmlns="http://www.w3.org/2000/svg">
<g id="LightUpArrow">
<path id="icon" d="M15.4806 15.9846L24.2994 24.1735C24.909 24.7395 24.909 25.6547 24.2994 26.2147L22.834 27.5755C22.2244 28.1415 21.2388 28.1415 20.6357 27.5755L14.3847 21.771L8.13374 27.5755C7.52421 28.1415 6.53857 28.1415 5.93552 27.5755L4.45707 26.2207C3.84753 25.6547 3.84753 24.7395 4.45707 24.1795L13.2759 15.9906C13.8854 15.4186 14.8711 15.4186 15.4806 15.9846ZM13.2759 4.42375L4.45707 12.6127C3.84753 13.1787 3.84753 14.0939 4.45707 14.6539L5.92255 16.0147C6.53209 16.5807 7.51772 16.5807 8.12077 16.0147L14.3783 10.2162L20.6292 16.0207C21.2388 16.5867 22.2244 16.5867 22.8275 16.0207L24.2994 14.6599C24.909 14.0939 24.909 13.1787 24.2994 12.6187L15.4806 4.42977C14.8711 3.85775 13.8854 3.85775 13.2759 4.42375Z" fill="url(#paint0_linear_150_9)"/>
<g id="icon--glow" filter="url(#filter0_f_150_9)">
<path d="M15.4806 15.9846L24.2994 24.1735C24.909 24.7395 24.909 25.6547 24.2994 26.2147L22.834 27.5755C22.2244 28.1415 21.2388 28.1415 20.6357 27.5755L14.3847 21.771L8.13374 27.5755C7.52421 28.1415 6.53857 28.1415 5.93552 27.5755L4.45707 26.2207C3.84753 25.6547 3.84753 24.7395 4.45707 24.1795L13.2759 15.9906C13.8854 15.4186 14.8711 15.4186 15.4806 15.9846ZM13.2759 4.42375L4.45707 12.6127C3.84753 13.1787 3.84753 14.0939 4.45707 14.6539L5.92255 16.0147C6.53209 16.5807 7.51772 16.5807 8.12077 16.0147L14.3783 10.2162L20.6292 16.0207C21.2388 16.5867 22.2244 16.5867 22.8275 16.0207L24.2994 14.6599C24.909 14.0939 24.909 13.1787 24.2994 12.6187L15.4806 4.42977C14.8711 3.85775 13.8854 3.85775 13.2759 4.42375Z" fill="url(#paint1_linear_150_9)"/>
</g>
</g>
<defs>
<filter id="filter0_f_150_9" x="0" y="0" width="28.7566" height="32" filterUnits="userSpaceOnUse" color-interpolation-filters="sRGB">
<feFlood flood-opacity="0" result="BackgroundImageFix"/>
<feBlend mode="normal" in="SourceGraphic" in2="BackgroundImageFix" result="shape"/>
<feGaussianBlur stdDeviation="2" result="effect1_foregroundBlur_150_9"/>
</filter>
<linearGradient id="paint0_linear_150_9" x1="14.3783" y1="28" x2="14.3783" y2="4" gradientUnits="userSpaceOnUse">
<stop stop-color="#EA1C24"/>
<stop offset="1" stop-color="#C11219"/>
</linearGradient>
<linearGradient id="paint1_linear_150_9" x1="14.3783" y1="28" x2="14.3783" y2="4" gradientUnits="userSpaceOnUse">
<stop stop-color="#EA1C24"/>
<stop offset="1" stop-color="#C11219"/>
</linearGradient>
</defs>
</svg>
