<svg width="36" height="36" viewBox="0 0 36 36" fill="none" xmlns="http://www.w3.org/2000/svg">
<g id="LightHeartIcon">
<g id="icon--glow" filter="url(#filter0_f_128_6)">
<path d="M28.7153 7.47324C30.1235 8.99667 30.9398 11.0452 30.9968 13.1989C31.0538 15.3527 30.3473 17.4484 29.0221 19.0566L17.9996 31L6.97961 19.0566C5.65281 17.4476 4.94564 15.35 5.00326 13.1946C5.06089 11.0391 5.87894 8.98931 7.28948 7.46597C8.70001 5.94264 10.596 5.06137 12.5882 5.00309C14.5804 4.94481 16.5176 5.71394 18.0022 7.15258C19.4873 5.71408 21.4252 4.94571 23.4177 5.00535C25.4102 5.06499 27.306 5.94811 28.7153 7.47324ZM9.12562 9.46334C8.19528 10.4699 7.65222 11.8207 7.6059 13.2434C7.55959 14.6661 8.01347 16.0549 8.87606 17.1298L18.0009 27.0184L27.1256 17.1312C27.9883 16.0559 28.442 14.6666 28.3953 13.2436C28.3485 11.8206 27.8048 10.4697 26.8737 9.46335C25.9427 8.45702 24.6936 7.87014 23.3784 7.82107C22.0632 7.772 20.7797 8.26439 19.7868 9.19893L14.3249 15.1102L12.4857 13.1215L16.1577 9.14549L16.0511 9.04845C15.0519 8.18326 13.7929 7.7472 12.5151 7.82375C11.2373 7.9003 10.0304 8.48409 9.12562 9.46334Z" fill="url(#paint0_linear_128_6)"/>
</g>
<path id="icon" d="M28.7153 7.47324C30.1235 8.99667 30.9398 11.0452 30.9968 13.1989C31.0538 15.3527 30.3473 17.4484 29.0221 19.0566L17.9996 31L6.97961 19.0566C5.65281 17.4476 4.94564 15.35 5.00326 13.1946C5.06089 11.0391 5.87894 8.98931 7.28948 7.46597C8.70001 5.94264 10.596 5.06137 12.5882 5.00309C14.5804 4.94481 16.5176 5.71394 18.0022 7.15258C19.4873 5.71408 21.4252 4.94571 23.4177 5.00535C25.4102 5.06499 27.306 5.94811 28.7153 7.47324ZM9.12562 9.46334C8.19528 10.4699 7.65222 11.8207 7.6059 13.2434C7.55959 14.6661 8.01347 16.0549 8.87606 17.1298L18.0009 27.0184L27.1256 17.1312C27.9883 16.0559 28.442 14.6666 28.3953 13.2436C28.3485 11.8206 27.8048 10.4697 26.8737 9.46335C25.9427 8.45702 24.6936 7.87014 23.3784 7.82107C22.0632 7.772 20.7797 8.26439 19.7868 9.19893L14.3249 15.1102L12.4857 13.1215L16.1577 9.14549L16.0511 9.04845C15.0519 8.18326 13.7929 7.7472 12.5151 7.82375C11.2373 7.9003 10.0304 8.48409 9.12562 9.46334Z" fill="url(#paint1_linear_128_6)"/>
</g>
<defs>
<filter id="filter0_f_128_6" x="0" y="0" width="36" height="36" filterUnits="userSpaceOnUse" color-interpolation-filters="sRGB">
<feFlood flood-opacity="0" result="BackgroundImageFix"/>
<feBlend mode="normal" in="SourceGraphic" in2="BackgroundImageFix" result="shape"/>
<feGaussianBlur stdDeviation="2.5" result="effect1_foregroundBlur_128_6"/>
</filter>
<linearGradient id="paint0_linear_128_6" x1="5" y1="5" x2="25.9266" y2="29.8968" gradientUnits="userSpaceOnUse">
<stop stop-color="#C11219"/>
<stop offset="1" stop-color="#EA1C24"/>
</linearGradient>
<linearGradient id="paint1_linear_128_6" x1="5" y1="5" x2="25.9266" y2="29.8968" gradientUnits="userSpaceOnUse">
<stop stop-color="#C11219"/>
<stop offset="1" stop-color="#EA1C24"/>
</linearGradient>
</defs>
</svg>
