<svg width="29" height="32" viewBox="0 0 29 32" fill="none" xmlns="http://www.w3.org/2000/svg">
<g id="LightDownArrow">
<path id="icon" d="M13.276 16.0154L4.45715 7.82651C3.84762 7.26051 3.84762 6.34528 4.45715 5.7853L5.92264 4.4245C6.53217 3.8585 7.51781 3.8585 8.12086 4.4245L14.3719 10.229L20.6228 4.4245C21.2324 3.8585 22.218 3.8585 22.8211 4.4245L24.2995 5.77928C24.9091 6.34528 24.9091 7.26051 24.2995 7.82049L15.4807 16.0094C14.8712 16.5814 13.8855 16.5814 13.276 16.0154ZM15.4807 27.5762L24.2995 19.3873C24.9091 18.8213 24.9091 17.9061 24.2995 17.3461L22.834 15.9853C22.2245 15.4193 21.2389 15.4193 20.6358 15.9853L14.3783 21.7838L8.12734 15.9793C7.51781 15.4133 6.53217 15.4133 5.92912 15.9793L4.45715 17.3401C3.84762 17.9061 3.84762 18.8213 4.45715 19.3813L13.276 27.5702C13.8855 28.1422 14.8712 28.1422 15.4807 27.5762Z" fill="url(#paint0_linear_150_9)"/>
<g id="icon--glow" filter="url(#filter0_f_150_9)">
<path d="M13.276 16.0154L4.45715 7.82651C3.84762 7.26051 3.84762 6.34528 4.45715 5.7853L5.92264 4.4245C6.53217 3.8585 7.51781 3.8585 8.12086 4.4245L14.3719 10.229L20.6228 4.4245C21.2324 3.8585 22.218 3.8585 22.8211 4.4245L24.2995 5.77928C24.9091 6.34528 24.9091 7.26051 24.2995 7.82049L15.4807 16.0094C14.8712 16.5814 13.8855 16.5814 13.276 16.0154ZM15.4807 27.5762L24.2995 19.3873C24.9091 18.8213 24.9091 17.9061 24.2995 17.3461L22.834 15.9853C22.2245 15.4193 21.2389 15.4193 20.6358 15.9853L14.3783 21.7838L8.12734 15.9793C7.51781 15.4133 6.53217 15.4133 5.92912 15.9793L4.45715 17.3401C3.84762 17.9061 3.84762 18.8213 4.45715 19.3813L13.276 27.5702C13.8855 28.1422 14.8712 28.1422 15.4807 27.5762Z" fill="url(#paint1_linear_150_9)"/>
</g>
</g>
<defs>
<filter id="filter0_f_150_9" x="0" y="0" width="28.7566" height="32" filterUnits="userSpaceOnUse" color-interpolation-filters="sRGB">
<feFlood flood-opacity="0" result="BackgroundImageFix"/>
<feBlend mode="normal" in="SourceGraphic" in2="BackgroundImageFix" result="shape"/>
<feGaussianBlur stdDeviation="2" result="effect1_foregroundBlur_150_9"/>
</filter>
<linearGradient id="paint0_linear_150_9" x1="14.3783" y1="4" x2="14.3783" y2="28" gradientUnits="userSpaceOnUse">
<stop stop-color="#EA1C24"/>
<stop offset="1" stop-color="#C11219"/>
</linearGradient>
<linearGradient id="paint1_linear_150_9" x1="14.3783" y1="4" x2="14.3783" y2="28" gradientUnits="userSpaceOnUse">
<stop stop-color="#EA1C24"/>
<stop offset="1" stop-color="#C11219"/>
</linearGradient>
</defs>
</svg>
