<svg width="37" height="38" viewBox="0 0 37 38" fill="none" xmlns="http://www.w3.org/2000/svg">
<g id="MoonIcon">
<path id="icon" d="M15.2505 4.52C15.4335 4.74241 15.5456 5.01459 15.5724 5.30139C15.5991 5.58818 15.5392 5.87641 15.4005 6.12882C14.3164 8.11917 13.7503 10.3502 13.7542 12.6166C13.7542 20.1563 19.9007 26.2615 27.476 26.2615C28.4641 26.2615 29.4261 26.1584 30.3505 25.9615C30.6338 25.9002 30.929 25.9236 31.1991 26.029C31.4692 26.1344 31.7023 26.317 31.8693 26.554C32.0455 26.8005 32.1354 27.0983 32.1249 27.4011C32.1144 27.704 32.0041 27.9948 31.8112 28.2285C30.3405 30.035 28.4852 31.4906 26.3806 32.489C24.276 33.4875 21.9751 34.0037 19.6457 34C11.0015 34 4 27.0359 4 18.4556C4 11.9978 7.96392 6.45883 13.6079 4.11123C13.889 3.99241 14.2012 3.96803 14.4973 4.04173C14.7935 4.11544 15.0578 4.28327 15.2505 4.52ZM13.1091 6.45696C10.9389 7.62106 9.12466 9.35141 7.85916 11.4641C6.59366 13.5768 5.92421 15.9929 5.92196 18.4556C5.92196 25.9934 12.0703 32.0987 19.6457 32.0987C21.4597 32.1018 23.2563 31.7451 24.9316 31.0493C26.6069 30.3534 28.1275 29.3322 29.4054 28.0447C28.7735 28.1235 28.1304 28.1629 27.476 28.1629C18.8319 28.1629 11.8322 21.1988 11.8322 12.6185C11.8322 10.4302 12.286 8.34704 13.1091 6.45696Z" fill="url(#paint0_linear_153_24)"/>
<g id="icon--glow" filter="url(#filter0_f_153_24)">
<path d="M15.2505 4.52C15.4335 4.74241 15.5456 5.01459 15.5724 5.30139C15.5991 5.58818 15.5392 5.87641 15.4005 6.12882C14.3164 8.11917 13.7503 10.3502 13.7542 12.6166C13.7542 20.1563 19.9007 26.2615 27.476 26.2615C28.4641 26.2615 29.4261 26.1584 30.3505 25.9615C30.6338 25.9002 30.929 25.9236 31.1991 26.029C31.4692 26.1344 31.7023 26.317 31.8693 26.554C32.0455 26.8005 32.1354 27.0983 32.1249 27.4011C32.1144 27.704 32.0041 27.9948 31.8112 28.2285C30.3405 30.035 28.4852 31.4906 26.3806 32.489C24.276 33.4875 21.9751 34.0037 19.6457 34C11.0015 34 4 27.0359 4 18.4556C4 11.9978 7.96392 6.45883 13.6079 4.11123C13.889 3.99241 14.2012 3.96803 14.4973 4.04173C14.7935 4.11544 15.0578 4.28327 15.2505 4.52ZM13.1091 6.45696C10.9389 7.62106 9.12466 9.35141 7.85916 11.4641C6.59366 13.5768 5.92421 15.9929 5.92196 18.4556C5.92196 25.9934 12.0703 32.0987 19.6457 32.0987C21.4597 32.1018 23.2563 31.7451 24.9316 31.0493C26.6069 30.3534 28.1275 29.3322 29.4054 28.0447C28.7735 28.1235 28.1304 28.1629 27.476 28.1629C18.8319 28.1629 11.8322 21.1988 11.8322 12.6185C11.8322 10.4302 12.286 8.34704 13.1091 6.45696Z" fill="url(#paint1_linear_153_24)"/>
</g>
</g>
<defs>
<filter id="filter0_f_153_24" x="0" y="0" width="36.1257" height="38" filterUnits="userSpaceOnUse" color-interpolation-filters="sRGB">
<feFlood flood-opacity="0" result="BackgroundImageFix"/>
<feBlend mode="normal" in="SourceGraphic" in2="BackgroundImageFix" result="shape"/>
<feGaussianBlur stdDeviation="2" result="effect1_foregroundBlur_153_24"/>
</filter>
<linearGradient id="paint0_linear_153_24" x1="18.0628" y1="4" x2="18.0628" y2="34" gradientUnits="userSpaceOnUse">
<stop stop-color="#EA1C24"/>
<stop offset="1" stop-color="#C11219"/>
</linearGradient>
<linearGradient id="paint1_linear_153_24" x1="18.0628" y1="4" x2="18.0628" y2="34" gradientUnits="userSpaceOnUse">
<stop stop-color="#EA1C24"/>
<stop offset="1" stop-color="#C11219"/>
</linearGradient>
</defs>
</svg>
