<svg width="66" height="66" viewBox="0 0 66 66" fill="none" xmlns="http://www.w3.org/2000/svg">
<g id="SearchIcon">
<path id="icon" fill-rule="evenodd" clip-rule="evenodd" d="M31.5654 22.7204C29.2198 22.7204 26.9703 23.6522 25.3117 25.3109C23.6531 26.9695 22.7213 29.2192 22.7213 31.5649C22.7213 33.9106 23.6531 36.1602 25.3117 37.8188C26.9703 39.4775 29.2198 40.4093 31.5654 40.4093C33.911 40.4093 36.1606 39.4775 37.8192 37.8188C39.4778 36.1602 40.4095 33.9106 40.4095 31.5649C40.4095 29.2192 39.4778 26.9695 37.8192 25.3109C36.1606 23.6522 33.911 22.7204 31.5654 22.7204V22.7204ZM20 31.5649C20.0002 29.7206 20.4413 27.9031 21.2867 26.264C22.1321 24.6249 23.3573 23.2117 24.8599 22.1424C26.3625 21.0731 28.099 20.3787 29.9245 20.117C31.7501 19.8553 33.6118 20.0341 35.3542 20.6382C37.0967 21.2424 38.6694 22.2546 39.9411 23.5902C41.2129 24.9258 42.1468 26.5462 42.6649 28.3162C43.1831 30.0862 43.2705 31.9545 42.9198 33.7651C42.5691 35.5758 41.7905 37.2763 40.649 38.7248L45.6181 43.694C45.8659 43.9507 46.003 44.2944 45.9999 44.6511C45.9968 45.0079 45.8538 45.3492 45.6015 45.6015C45.3492 45.8537 45.0079 45.9968 44.6512 45.9999C44.2944 46.003 43.9507 45.8659 43.6941 45.618L38.7251 40.6488C37.0197 41.9932 34.9703 42.8302 32.8114 43.0642C30.6525 43.2981 28.4713 42.9195 26.5176 41.9717C24.5638 41.0239 22.9163 39.5451 21.7637 37.7047C20.6111 35.8642 19.9999 33.7365 20 31.5649V31.5649ZM30.2048 26.8025C30.2048 26.4416 30.3481 26.0955 30.6033 25.8403C30.8585 25.5851 31.2045 25.4418 31.5654 25.4418C33.1893 25.4418 34.7467 26.0869 35.8949 27.2352C37.0432 28.3835 37.6883 29.9409 37.6883 31.5649C37.6883 31.9257 37.5449 32.2718 37.2897 32.527C37.0346 32.7822 36.6885 32.9255 36.3276 32.9255C35.9668 32.9255 35.6207 32.7822 35.3655 32.527C35.1103 32.2718 34.967 31.9257 34.967 31.5649C34.967 30.6627 34.6086 29.7974 33.9707 29.1595C33.3328 28.5215 32.4676 28.1631 31.5654 28.1631C31.2045 28.1631 30.8585 28.0198 30.6033 27.7646C30.3481 27.5094 30.2048 27.1633 30.2048 26.8025Z" fill="url(#paint0_linear_52_73)"/>
<g id="icon--glow" filter="url(#filter0_f_52_73)">
<path fill-rule="evenodd" clip-rule="evenodd" d="M31.5654 22.7204C29.2198 22.7204 26.9703 23.6522 25.3117 25.3109C23.6531 26.9695 22.7213 29.2192 22.7213 31.5649C22.7213 33.9106 23.6531 36.1602 25.3117 37.8188C26.9703 39.4775 29.2198 40.4093 31.5654 40.4093C33.911 40.4093 36.1606 39.4775 37.8192 37.8188C39.4778 36.1602 40.4095 33.9106 40.4095 31.5649C40.4095 29.2192 39.4778 26.9695 37.8192 25.3109C36.1606 23.6522 33.911 22.7204 31.5654 22.7204V22.7204ZM20 31.5649C20.0002 29.7206 20.4413 27.9031 21.2867 26.264C22.1321 24.6249 23.3573 23.2117 24.8599 22.1424C26.3625 21.0731 28.099 20.3787 29.9245 20.117C31.7501 19.8553 33.6118 20.0341 35.3542 20.6382C37.0967 21.2424 38.6694 22.2546 39.9411 23.5902C41.2129 24.9258 42.1468 26.5462 42.6649 28.3162C43.1831 30.0862 43.2705 31.9545 42.9198 33.7651C42.5691 35.5758 41.7905 37.2763 40.649 38.7248L45.6181 43.694C45.8659 43.9507 46.003 44.2944 45.9999 44.6511C45.9968 45.0079 45.8538 45.3492 45.6015 45.6015C45.3492 45.8537 45.0079 45.9968 44.6512 45.9999C44.2944 46.003 43.9507 45.8659 43.6941 45.618L38.7251 40.6488C37.0197 41.9932 34.9703 42.8302 32.8114 43.0642C30.6525 43.2981 28.4713 42.9195 26.5176 41.9717C24.5638 41.0239 22.9163 39.5451 21.7637 37.7047C20.6111 35.8642 19.9999 33.7365 20 31.5649V31.5649ZM30.2048 26.8025C30.2048 26.4416 30.3481 26.0955 30.6033 25.8403C30.8585 25.5851 31.2045 25.4418 31.5654 25.4418C33.1893 25.4418 34.7467 26.0869 35.8949 27.2352C37.0432 28.3835 37.6883 29.9409 37.6883 31.5649C37.6883 31.9257 37.5449 32.2718 37.2897 32.527C37.0346 32.7822 36.6885 32.9255 36.3276 32.9255C35.9668 32.9255 35.6207 32.7822 35.3655 32.527C35.1103 32.2718 34.967 31.9257 34.967 31.5649C34.967 30.6627 34.6086 29.7974 33.9707 29.1595C33.3328 28.5215 32.4676 28.1631 31.5654 28.1631C31.2045 28.1631 30.8585 28.0198 30.6033 27.7646C30.3481 27.5094 30.2048 27.1633 30.2048 26.8025Z" fill="url(#paint1_linear_52_73)"/>
</g>
</g>
<defs>
<filter id="filter0_f_52_73" x="0" y="0" width="66" height="66" filterUnits="userSpaceOnUse" color-interpolation-filters="sRGB">
<feFlood flood-opacity="0" result="BackgroundImageFix"/>
<feBlend mode="normal" in="SourceGraphic" in2="BackgroundImageFix" result="shape"/>
<feGaussianBlur stdDeviation="10" result="effect1_foregroundBlur_52_73"/>
</filter>
<linearGradient id="paint0_linear_52_73" x1="33" y1="20" x2="33" y2="46" gradientUnits="userSpaceOnUse">
<stop stop-color="#EA1C24"/>
<stop offset="1" stop-color="#FB624C"/>
</linearGradient>
<linearGradient id="paint1_linear_52_73" x1="33" y1="20" x2="33" y2="46" gradientUnits="userSpaceOnUse">
<stop stop-color="#EA1C24"/>
<stop offset="1" stop-color="#FB624C"/>
</linearGradient>
</defs>
</svg>
