<svg width="38" height="39" viewBox="0 0 38 39" fill="none" xmlns="http://www.w3.org/2000/svg">
<g id="SunIcon">
<g id="icon--glow" filter="url(#filter0_f_153_20)">
<path id="Vector" d="M19 34.0034C18.6799 34.0055 18.365 33.9223 18.0877 33.7624C17.8104 33.6025 17.5807 33.3717 17.4221 33.0936L14.9881 28.9055C14.9727 28.8761 14.9474 28.8531 14.9167 28.8405C14.886 28.8279 14.8519 28.8266 14.8203 28.8367L10.1504 30.0805C9.84195 30.1618 9.51759 30.1607 9.20966 30.0775C8.90174 29.9943 8.62101 29.8318 8.39547 29.6063C8.16992 29.3807 8.00744 29.1 7.92423 28.7921C7.84101 28.4841 7.83997 28.1598 7.92121 27.8513L9.17681 23.1512C9.18564 23.1196 9.18367 23.0859 9.1712 23.0555C9.15874 23.0251 9.13649 22.9997 9.10798 22.9834L4.91147 20.5679C4.63435 20.4079 4.40422 20.1777 4.24423 19.9006C4.08423 19.6235 4 19.3091 4 18.9891C4 18.6691 4.08423 18.3548 4.24423 18.0777C4.40422 17.8005 4.63435 17.5704 4.91147 17.4104L9.09623 14.9899C9.12495 14.9737 9.14738 14.9484 9.15987 14.9179C9.17237 14.8874 9.17419 14.8536 9.16506 14.822L7.92121 10.1521C7.83997 9.84367 7.84101 9.51932 7.92423 9.21139C8.00744 8.90347 8.16992 8.62274 8.39547 8.39719C8.62101 8.17165 8.90174 8.00917 9.20966 7.92595C9.51759 7.84274 9.84195 7.8417 10.1504 7.92294L14.8505 9.17853C14.8822 9.18651 14.9155 9.18413 14.9457 9.17174C14.976 9.15936 15.0014 9.13762 15.0184 9.10971L17.4339 4.9132C17.5913 4.63647 17.819 4.40625 18.0941 4.24589C18.3691 4.08553 18.6816 4.00071 19 4.00004C19.3201 3.99795 19.635 4.08113 19.9123 4.24102C20.1896 4.40092 20.4193 4.63176 20.5779 4.90984L23.0119 9.09796C23.0273 9.12735 23.0526 9.15037 23.0833 9.16295C23.114 9.17554 23.1481 9.1769 23.1797 9.16678L27.8496 7.92294C28.1581 7.8417 28.4824 7.84274 28.7903 7.92595C29.0983 8.00917 29.379 8.17165 29.6045 8.39719C29.8301 8.62274 29.9926 8.90347 30.0758 9.21139C30.159 9.51932 30.16 9.84367 30.0788 10.1521L28.8232 14.8522C28.8141 14.8839 28.8159 14.9177 28.8284 14.9481C28.8409 14.9786 28.8633 15.004 28.892 15.0201L33.0885 17.4356C33.3657 17.5956 33.5958 17.8257 33.7558 18.1028C33.9158 18.38 34 18.6943 34 19.0143C34 19.3343 33.9158 19.6487 33.7558 19.9258C33.5958 20.2029 33.3657 20.433 33.0885 20.593L28.9038 23.0136C28.8755 23.0301 28.8534 23.0555 28.841 23.0859C28.8285 23.1162 28.8264 23.1498 28.8349 23.1815L30.0905 27.8547C30.172 28.1641 30.1706 28.4895 30.0866 28.7983C30.0026 29.107 29.8389 29.3883 29.6119 29.6137C29.3848 29.8392 29.1025 30.0011 28.7932 30.083C28.4839 30.1649 28.1585 30.1641 27.8496 30.0805L23.1495 28.8249C23.1179 28.8164 23.0843 28.8185 23.0539 28.8309C23.0236 28.8434 22.9982 28.8654 22.9817 28.8937L20.5661 33.0903C20.4077 33.3687 20.1781 33.6001 19.9009 33.7605C19.6236 33.921 19.3086 34.0048 18.9883 34.0034H19ZM14.8606 27.148C15.1805 27.1481 15.4948 27.2319 15.7722 27.3913C16.0497 27.5506 16.2805 27.7798 16.4418 28.0561L18.8724 32.2526C18.8846 32.2752 18.9028 32.2939 18.9251 32.3067C18.9473 32.3194 18.9727 32.3257 18.9983 32.3248C19.0237 32.3256 19.0488 32.3192 19.0707 32.3065C19.0927 32.2937 19.1106 32.2751 19.1225 32.2526L21.5397 28.0561C21.7394 27.7079 22.0488 27.4355 22.4196 27.2816C22.7904 27.1276 23.2017 27.1007 23.5893 27.2051L28.2894 28.459C28.314 28.4653 28.3398 28.4652 28.3644 28.4585C28.3889 28.4518 28.4112 28.4388 28.4292 28.4209C28.4472 28.4029 28.4601 28.3805 28.4668 28.356C28.4735 28.3315 28.4737 28.3057 28.4673 28.2811L27.2134 23.6061C27.1094 23.2195 27.1351 22.8094 27.2867 22.4388C27.4384 22.0682 27.7075 21.7577 28.0527 21.5549L32.2492 19.1243C32.2716 19.1117 32.2902 19.0934 32.3032 19.0713C32.3161 19.0492 32.3229 19.024 32.3229 18.9984C32.3229 18.9727 32.3161 18.9476 32.3032 18.9254C32.2902 18.9033 32.2716 18.885 32.2492 18.8725L28.0527 16.457C27.7051 16.2566 27.4332 15.9472 27.2794 15.5766C27.1255 15.206 27.0982 14.7951 27.2017 14.4074L28.4556 9.70729C28.4633 9.68296 28.4639 9.65693 28.4574 9.63226C28.4509 9.60758 28.4374 9.58528 28.4187 9.56797C28.4006 9.54927 28.3777 9.53582 28.3526 9.52902C28.3275 9.52222 28.301 9.52234 28.276 9.52936L23.6027 10.7833C23.2161 10.8876 22.8059 10.862 22.4352 10.7104C22.0646 10.5587 21.7541 10.2894 21.5515 9.94398L19.1209 5.74747C19.1086 5.7263 19.091 5.70876 19.0698 5.69667C19.0485 5.68457 19.0244 5.67835 19 5.67864C18.9746 5.67788 18.9495 5.68423 18.9276 5.69699C18.9056 5.70974 18.8877 5.72839 18.8758 5.75082L16.4586 9.94734C16.258 10.2951 15.9482 10.567 15.5774 10.7209C15.2065 10.8747 14.7952 10.902 14.4073 10.7984L9.70725 9.54447C9.68264 9.53811 9.6568 9.53828 9.63228 9.54497C9.60776 9.55166 9.58541 9.56463 9.56744 9.5826C9.54947 9.60057 9.5365 9.62292 9.52981 9.64744C9.52313 9.67196 9.52295 9.6978 9.52931 9.7224L10.7916 14.3923C10.8957 14.7789 10.8699 15.189 10.7183 15.5596C10.5667 15.9302 10.2976 16.2407 9.95232 16.4435L5.75581 18.8742C5.73173 18.8855 5.71146 18.9036 5.69746 18.9263C5.68346 18.9489 5.67632 18.9751 5.67692 19.0017C5.67615 19.0271 5.6825 19.0522 5.69526 19.0742C5.70802 19.0961 5.72667 19.114 5.7491 19.1259L9.94561 21.5431C10.293 21.7437 10.5647 22.0532 10.7185 22.4237C10.8724 22.7942 10.8998 23.205 10.7967 23.5927L9.54274 28.2928C9.53502 28.3171 9.53439 28.3432 9.54093 28.3678C9.54747 28.3925 9.56091 28.4148 9.57967 28.4321C9.59787 28.4507 9.62069 28.464 9.64577 28.4708C9.67085 28.4776 9.69729 28.4776 9.72235 28.4707L14.3956 27.2168C14.5469 27.1737 14.7032 27.1506 14.8606 27.148V27.148Z" fill="url(#paint0_linear_153_20)"/>
<path id="Vector_2" d="M19.0002 25.5065C17.7137 25.5065 16.4561 25.125 15.3864 24.4103C14.3168 23.6955 13.4831 22.6797 12.9907 21.4911C12.4984 20.3026 12.3696 18.9947 12.6206 17.7329C12.8716 16.4712 13.4911 15.3122 14.4008 14.4025C15.3104 13.4928 16.4695 12.8733 17.7312 12.6223C18.993 12.3713 20.3008 12.5001 21.4894 12.9924C22.678 13.4848 23.6938 14.3185 24.4086 15.3882C25.1233 16.4578 25.5048 17.7154 25.5048 19.0019C25.5026 20.7264 24.8166 22.3795 23.5972 23.5989C22.3778 24.8183 20.7246 25.5043 19.0002 25.5065V25.5065ZM19.0002 14.1759C18.0457 14.1759 17.1127 14.459 16.319 14.9892C15.5254 15.5195 14.9068 16.2733 14.5416 17.1551C14.1763 18.0369 14.0807 19.0073 14.2669 19.9434C14.4532 20.8796 14.9128 21.7395 15.5877 22.4144C16.2626 23.0893 17.1225 23.549 18.0587 23.7352C18.9948 23.9214 19.9652 23.8258 20.847 23.4605C21.7289 23.0953 22.4826 22.4767 23.0129 21.6831C23.5432 20.8895 23.8262 19.9564 23.8262 19.0019C23.8244 17.7225 23.3154 16.496 22.4107 15.5914C21.5061 14.6867 20.2796 14.1777 19.0002 14.1759Z" fill="url(#paint1_linear_153_20)"/>
</g>
<g id="icon">
<path id="Vector_3" d="M19 34.0034C18.6799 34.0055 18.365 33.9223 18.0877 33.7624C17.8104 33.6025 17.5807 33.3717 17.4221 33.0936L14.9881 28.9055C14.9727 28.8761 14.9474 28.8531 14.9167 28.8405C14.886 28.8279 14.8519 28.8266 14.8203 28.8367L10.1504 30.0805C9.84195 30.1618 9.51759 30.1607 9.20966 30.0775C8.90174 29.9943 8.62101 29.8318 8.39547 29.6063C8.16992 29.3807 8.00744 29.1 7.92423 28.7921C7.84101 28.4841 7.83997 28.1598 7.92121 27.8513L9.17681 23.1512C9.18564 23.1196 9.18367 23.0859 9.1712 23.0555C9.15874 23.0251 9.13649 22.9997 9.10798 22.9834L4.91147 20.5679C4.63435 20.4079 4.40422 20.1777 4.24423 19.9006C4.08423 19.6235 4 19.3091 4 18.9891C4 18.6691 4.08423 18.3548 4.24423 18.0777C4.40422 17.8005 4.63435 17.5704 4.91147 17.4104L9.09623 14.9899C9.12495 14.9737 9.14738 14.9484 9.15987 14.9179C9.17237 14.8874 9.17419 14.8536 9.16506 14.822L7.92121 10.1521C7.83997 9.84367 7.84101 9.51932 7.92423 9.21139C8.00744 8.90347 8.16992 8.62274 8.39547 8.39719C8.62101 8.17165 8.90174 8.00917 9.20966 7.92595C9.51759 7.84274 9.84195 7.8417 10.1504 7.92294L14.8505 9.17853C14.8822 9.18651 14.9155 9.18413 14.9457 9.17174C14.976 9.15936 15.0014 9.13762 15.0184 9.10971L17.4339 4.9132C17.5913 4.63647 17.819 4.40625 18.0941 4.24589C18.3691 4.08553 18.6816 4.00071 19 4.00004C19.3201 3.99795 19.635 4.08113 19.9123 4.24102C20.1896 4.40092 20.4193 4.63176 20.5779 4.90984L23.0119 9.09796C23.0273 9.12735 23.0526 9.15037 23.0833 9.16295C23.114 9.17554 23.1481 9.1769 23.1797 9.16678L27.8496 7.92294C28.1581 7.8417 28.4824 7.84274 28.7903 7.92595C29.0983 8.00917 29.379 8.17165 29.6045 8.39719C29.8301 8.62274 29.9926 8.90347 30.0758 9.21139C30.159 9.51932 30.16 9.84367 30.0788 10.1521L28.8232 14.8522C28.8141 14.8839 28.8159 14.9177 28.8284 14.9481C28.8409 14.9786 28.8633 15.004 28.892 15.0201L33.0885 17.4356C33.3657 17.5956 33.5958 17.8257 33.7558 18.1028C33.9158 18.38 34 18.6943 34 19.0143C34 19.3343 33.9158 19.6487 33.7558 19.9258C33.5958 20.2029 33.3657 20.433 33.0885 20.593L28.9038 23.0136C28.8755 23.0301 28.8534 23.0555 28.841 23.0859C28.8285 23.1162 28.8264 23.1498 28.8349 23.1815L30.0905 27.8547C30.172 28.1641 30.1706 28.4895 30.0866 28.7983C30.0026 29.107 29.8389 29.3883 29.6119 29.6137C29.3848 29.8392 29.1025 30.0011 28.7932 30.083C28.4839 30.1649 28.1585 30.1641 27.8496 30.0805L23.1495 28.8249C23.1179 28.8164 23.0843 28.8185 23.0539 28.8309C23.0236 28.8434 22.9982 28.8654 22.9817 28.8937L20.5661 33.0903C20.4077 33.3687 20.1781 33.6001 19.9009 33.7605C19.6236 33.921 19.3086 34.0048 18.9883 34.0034H19ZM14.8606 27.148C15.1805 27.1481 15.4948 27.2319 15.7722 27.3913C16.0497 27.5506 16.2805 27.7798 16.4418 28.0561L18.8724 32.2526C18.8846 32.2752 18.9028 32.2939 18.9251 32.3067C18.9473 32.3194 18.9727 32.3257 18.9983 32.3248C19.0237 32.3256 19.0488 32.3192 19.0707 32.3065C19.0927 32.2937 19.1106 32.2751 19.1225 32.2526L21.5397 28.0561C21.7394 27.7079 22.0488 27.4355 22.4196 27.2816C22.7904 27.1276 23.2017 27.1007 23.5893 27.2051L28.2894 28.459C28.314 28.4653 28.3398 28.4652 28.3644 28.4585C28.3889 28.4518 28.4112 28.4388 28.4292 28.4209C28.4472 28.4029 28.4601 28.3805 28.4668 28.356C28.4735 28.3315 28.4737 28.3057 28.4673 28.2811L27.2134 23.6061C27.1094 23.2195 27.1351 22.8094 27.2867 22.4388C27.4384 22.0682 27.7075 21.7577 28.0527 21.5549L32.2492 19.1243C32.2716 19.1117 32.2902 19.0934 32.3032 19.0713C32.3161 19.0492 32.3229 19.024 32.3229 18.9984C32.3229 18.9727 32.3161 18.9476 32.3032 18.9254C32.2902 18.9033 32.2716 18.885 32.2492 18.8725L28.0527 16.457C27.7051 16.2566 27.4332 15.9472 27.2794 15.5766C27.1255 15.206 27.0982 14.7951 27.2017 14.4074L28.4556 9.70729C28.4633 9.68296 28.4639 9.65693 28.4574 9.63226C28.4509 9.60758 28.4374 9.58528 28.4187 9.56797C28.4006 9.54927 28.3777 9.53582 28.3526 9.52902C28.3275 9.52222 28.301 9.52234 28.276 9.52936L23.6027 10.7833C23.2161 10.8876 22.8059 10.862 22.4352 10.7104C22.0646 10.5587 21.7541 10.2894 21.5515 9.94398L19.1209 5.74747C19.1086 5.7263 19.091 5.70876 19.0698 5.69667C19.0485 5.68457 19.0244 5.67835 19 5.67864C18.9746 5.67788 18.9495 5.68423 18.9276 5.69699C18.9056 5.70974 18.8877 5.72839 18.8758 5.75082L16.4586 9.94734C16.258 10.2951 15.9482 10.567 15.5774 10.7209C15.2065 10.8747 14.7952 10.902 14.4073 10.7984L9.70725 9.54447C9.68264 9.53811 9.6568 9.53828 9.63228 9.54497C9.60776 9.55166 9.58541 9.56463 9.56744 9.5826C9.54947 9.60057 9.5365 9.62292 9.52981 9.64744C9.52313 9.67196 9.52295 9.6978 9.52931 9.7224L10.7916 14.3923C10.8957 14.7789 10.8699 15.189 10.7183 15.5596C10.5667 15.9302 10.2976 16.2407 9.95232 16.4435L5.75581 18.8742C5.73173 18.8855 5.71146 18.9036 5.69746 18.9263C5.68346 18.9489 5.67632 18.9751 5.67692 19.0017C5.67615 19.0271 5.6825 19.0522 5.69526 19.0742C5.70802 19.0961 5.72667 19.114 5.7491 19.1259L9.94561 21.5431C10.293 21.7437 10.5647 22.0532 10.7185 22.4237C10.8724 22.7942 10.8998 23.205 10.7967 23.5927L9.54274 28.2928C9.53502 28.3171 9.53439 28.3432 9.54093 28.3678C9.54747 28.3925 9.56091 28.4148 9.57967 28.4321C9.59787 28.4507 9.62069 28.464 9.64577 28.4708C9.67085 28.4776 9.69729 28.4776 9.72235 28.4707L14.3956 27.2168C14.5469 27.1737 14.7032 27.1506 14.8606 27.148V27.148Z" fill="url(#paint2_linear_153_20)"/>
<path id="Vector_4" d="M19.0002 25.5065C17.7137 25.5065 16.4561 25.125 15.3864 24.4103C14.3168 23.6955 13.4831 22.6797 12.9907 21.4911C12.4984 20.3026 12.3696 18.9947 12.6206 17.7329C12.8716 16.4712 13.4911 15.3122 14.4008 14.4025C15.3104 13.4928 16.4695 12.8733 17.7312 12.6223C18.993 12.3713 20.3008 12.5001 21.4894 12.9924C22.678 13.4848 23.6938 14.3185 24.4086 15.3882C25.1233 16.4578 25.5048 17.7154 25.5048 19.0019C25.5026 20.7264 24.8166 22.3795 23.5972 23.5989C22.3778 24.8183 20.7246 25.5043 19.0002 25.5065V25.5065ZM19.0002 14.1759C18.0457 14.1759 17.1127 14.459 16.319 14.9892C15.5254 15.5195 14.9068 16.2733 14.5416 17.1551C14.1763 18.0369 14.0807 19.0073 14.2669 19.9434C14.4532 20.8796 14.9128 21.7395 15.5877 22.4144C16.2626 23.0893 17.1225 23.549 18.0587 23.7352C18.9948 23.9214 19.9652 23.8258 20.847 23.4605C21.7289 23.0953 22.4826 22.4767 23.0129 21.6831C23.5432 20.8895 23.8262 19.9564 23.8262 19.0019C23.8244 17.7225 23.3154 16.496 22.4107 15.5914C21.5061 14.6867 20.2796 14.1777 19.0002 14.1759Z" fill="url(#paint3_linear_153_20)"/>
</g>
</g>
<defs>
<filter id="filter0_f_153_20" x="0" y="0" width="38" height="38.0034" filterUnits="userSpaceOnUse" color-interpolation-filters="sRGB">
<feFlood flood-opacity="0" result="BackgroundImageFix"/>
<feBlend mode="normal" in="SourceGraphic" in2="BackgroundImageFix" result="shape"/>
<feGaussianBlur stdDeviation="2" result="effect1_foregroundBlur_153_20"/>
</filter>
<linearGradient id="paint0_linear_153_20" x1="19" y1="4" x2="19" y2="34.0035" gradientUnits="userSpaceOnUse">
<stop stop-color="#EA1C24"/>
<stop offset="1" stop-color="#F75444"/>
</linearGradient>
<linearGradient id="paint1_linear_153_20" x1="19.0002" y1="12.4973" x2="19.0002" y2="25.5065" gradientUnits="userSpaceOnUse">
<stop stop-color="#EA1C24"/>
<stop offset="1" stop-color="#F75444"/>
</linearGradient>
<linearGradient id="paint2_linear_153_20" x1="19" y1="4" x2="19" y2="34.0035" gradientUnits="userSpaceOnUse">
<stop stop-color="#EA1C24"/>
<stop offset="1" stop-color="#F75444"/>
</linearGradient>
<linearGradient id="paint3_linear_153_20" x1="19.0002" y1="12.4973" x2="19.0002" y2="25.5065" gradientUnits="userSpaceOnUse">
<stop stop-color="#EA1C24"/>
<stop offset="1" stop-color="#F75444"/>
</linearGradient>
</defs>
</svg>
