<svg width="25" height="26" viewBox="0 0 25 26" fill="none" xmlns="http://www.w3.org/2000/svg">
<g id="UpArrow">
<path id="icon" d="M13.3404 12.9884L19.9545 19.1301C20.4117 19.5546 20.4117 20.241 19.9545 20.661L18.8554 21.6816C18.3982 22.1061 17.659 22.1061 17.2067 21.6816L12.5185 17.3283L7.83023 21.6816C7.37307 22.1061 6.63385 22.1061 6.18156 21.6816L5.07272 20.6655C4.61557 20.241 4.61557 19.5546 5.07272 19.1346L11.6868 12.9929C12.144 12.5639 12.8832 12.5639 13.3404 12.9884ZM11.6868 4.31781L5.07272 10.4595C4.61557 10.884 4.61557 11.5704 5.07272 11.9904L6.17183 13.011C6.62898 13.4355 7.36821 13.4355 7.8205 13.011L12.5136 8.66215L17.2019 13.0155C17.659 13.44 18.3982 13.44 18.8505 13.0155L19.9545 11.9949C20.4117 11.5704 20.4117 10.884 19.9545 10.464L13.3404 4.32233C12.8832 3.89331 12.144 3.89331 11.6868 4.31781Z" fill="url(#paint0_linear_135_5)"/>
<g id="icon--glow" filter="url(#filter0_f_135_5)">
<path d="M13.3404 12.9884L19.9545 19.1301C20.4117 19.5546 20.4117 20.241 19.9545 20.661L18.8554 21.6816C18.3982 22.1061 17.659 22.1061 17.2067 21.6816L12.5185 17.3283L7.83023 21.6816C7.37307 22.1061 6.63385 22.1061 6.18156 21.6816L5.07272 20.6655C4.61557 20.241 4.61557 19.5546 5.07272 19.1346L11.6868 12.9929C12.144 12.5639 12.8832 12.5639 13.3404 12.9884ZM11.6868 4.31781L5.07272 10.4595C4.61557 10.884 4.61557 11.5704 5.07272 11.9904L6.17183 13.011C6.62898 13.4355 7.36821 13.4355 7.8205 13.011L12.5136 8.66215L17.2019 13.0155C17.659 13.44 18.3982 13.44 18.8505 13.0155L19.9545 11.9949C20.4117 11.5704 20.4117 10.884 19.9545 10.464L13.3404 4.32233C12.8832 3.89331 12.144 3.89331 11.6868 4.31781Z" fill="url(#paint1_linear_135_5)"/>
</g>
</g>
<defs>
<filter id="filter0_f_135_5" x="0.729736" y="0" width="23.5676" height="26" filterUnits="userSpaceOnUse" color-interpolation-filters="sRGB">
<feFlood flood-opacity="0" result="BackgroundImageFix"/>
<feBlend mode="normal" in="SourceGraphic" in2="BackgroundImageFix" result="shape"/>
<feGaussianBlur stdDeviation="2" result="effect1_foregroundBlur_135_5"/>
</filter>
<linearGradient id="paint0_linear_135_5" x1="12.5136" y1="22" x2="12.5136" y2="4" gradientUnits="userSpaceOnUse">
<stop stop-color="#EA1C24"/>
<stop offset="1" stop-color="#FB624C"/>
</linearGradient>
<linearGradient id="paint1_linear_135_5" x1="12.5136" y1="22" x2="12.5136" y2="4" gradientUnits="userSpaceOnUse">
<stop stop-color="#EA1C24"/>
<stop offset="1" stop-color="#FB624C"/>
</linearGradient>
</defs>
</svg>
