<svg width="30" height="32" viewBox="0 0 30 32" fill="none" xmlns="http://www.w3.org/2000/svg">
<g id="UpArrow">
<path id="icon" d="M16.2103 15.9846L25.0292 24.1735C25.6387 24.7395 25.6387 25.6547 25.0292 26.2147L23.5637 27.5755C22.9542 28.1415 21.9685 28.1415 21.3655 27.5755L15.1145 21.771L8.86348 27.5755C8.25394 28.1415 7.26831 28.1415 6.66525 27.5755L5.1868 26.2207C4.57727 25.6547 4.57727 24.7395 5.1868 24.1795L14.0056 15.9906C14.6152 15.4186 15.6008 15.4186 16.2103 15.9846ZM14.0056 4.42375L5.1868 12.6127C4.57727 13.1787 4.57727 14.0939 5.1868 14.6539L6.65229 16.0147C7.26182 16.5807 8.24746 16.5807 8.85051 16.0147L15.108 10.2162L21.359 16.0207C21.9685 16.5867 22.9542 16.5867 23.5572 16.0207L25.0292 14.6599C25.6387 14.0939 25.6387 13.1787 25.0292 12.6187L16.2103 4.42977C15.6008 3.85775 14.6152 3.85775 14.0056 4.42375Z" fill="url(#paint0_linear_135_5)"/>
<g id="icon--glow" filter="url(#filter0_f_135_5)">
<path d="M16.2103 15.9846L25.0292 24.1735C25.6387 24.7395 25.6387 25.6547 25.0292 26.2147L23.5637 27.5755C22.9542 28.1415 21.9685 28.1415 21.3655 27.5755L15.1145 21.771L8.86348 27.5755C8.25394 28.1415 7.26831 28.1415 6.66525 27.5755L5.1868 26.2207C4.57727 25.6547 4.57727 24.7395 5.1868 24.1795L14.0056 15.9906C14.6152 15.4186 15.6008 15.4186 16.2103 15.9846ZM14.0056 4.42375L5.1868 12.6127C4.57727 13.1787 4.57727 14.0939 5.1868 14.6539L6.65229 16.0147C7.26182 16.5807 8.24746 16.5807 8.85051 16.0147L15.108 10.2162L21.359 16.0207C21.9685 16.5867 22.9542 16.5867 23.5572 16.0207L25.0292 14.6599C25.6387 14.0939 25.6387 13.1787 25.0292 12.6187L16.2103 4.42977C15.6008 3.85775 14.6152 3.85775 14.0056 4.42375Z" fill="url(#paint1_linear_135_5)"/>
</g>
</g>
<defs>
<filter id="filter0_f_135_5" x="0.729736" y="0" width="28.7566" height="32" filterUnits="userSpaceOnUse" color-interpolation-filters="sRGB">
<feFlood flood-opacity="0" result="BackgroundImageFix"/>
<feBlend mode="normal" in="SourceGraphic" in2="BackgroundImageFix" result="shape"/>
<feGaussianBlur stdDeviation="2" result="effect1_foregroundBlur_135_5"/>
</filter>
<linearGradient id="paint0_linear_135_5" x1="15.108" y1="28" x2="15.108" y2="4" gradientUnits="userSpaceOnUse">
<stop stop-color="#EA1C24"/>
<stop offset="1" stop-color="#FB624C"/>
</linearGradient>
<linearGradient id="paint1_linear_135_5" x1="15.108" y1="28" x2="15.108" y2="4" gradientUnits="userSpaceOnUse">
<stop stop-color="#EA1C24"/>
<stop offset="1" stop-color="#FB624C"/>
</linearGradient>
</defs>
</svg>
