<svg width="31" height="36" viewBox="0 0 31 36" fill="none" xmlns="http://www.w3.org/2000/svg">
<g id="UpArrow">
<path id="icon" d="M16.4373 17.982L25.9911 27.5357C26.6514 28.1961 26.6514 29.2638 25.9911 29.9171L24.4035 31.5048C23.7431 32.1651 22.6754 32.1651 22.0221 31.5048L15.2502 24.7328L8.47824 31.5048C7.81791 32.1651 6.75014 32.1651 6.09683 31.5048L4.49518 29.9242C3.83484 29.2638 3.83484 28.1961 4.49518 27.5428L14.0489 17.989C14.7092 17.3217 15.777 17.3217 16.4373 17.982ZM14.0489 4.49438L4.49518 14.0481C3.83484 14.7084 3.83484 15.7762 4.49518 16.4295L6.08278 18.0171C6.74311 18.6775 7.81088 18.6775 8.46419 18.0171L15.2431 11.2522L22.015 18.0241C22.6754 18.6845 23.7431 18.6845 24.3964 18.0241L25.9911 16.4365C26.6514 15.7762 26.6514 14.7084 25.9911 14.0551L16.4373 4.5014C15.777 3.83404 14.7092 3.83404 14.0489 4.49438Z" fill="url(#paint0_linear_135_5)"/>
<g id="icon--glow" filter="url(#filter0_f_135_5)">
<path d="M16.4373 17.982L25.9911 27.5357C26.6514 28.1961 26.6514 29.2638 25.9911 29.9171L24.4035 31.5048C23.7431 32.1651 22.6754 32.1651 22.0221 31.5048L15.2502 24.7328L8.47824 31.5048C7.81791 32.1651 6.75014 32.1651 6.09683 31.5048L4.49518 29.9242C3.83484 29.2638 3.83484 28.1961 4.49518 27.5428L14.0489 17.989C14.7092 17.3217 15.777 17.3217 16.4373 17.982ZM14.0489 4.49438L4.49518 14.0481C3.83484 14.7084 3.83484 15.7762 4.49518 16.4295L6.08278 18.0171C6.74311 18.6775 7.81088 18.6775 8.46419 18.0171L15.2431 11.2522L22.015 18.0241C22.6754 18.6845 23.7431 18.6845 24.3964 18.0241L25.9911 16.4365C26.6514 15.7762 26.6514 14.7084 25.9911 14.0551L16.4373 4.5014C15.777 3.83404 14.7092 3.83404 14.0489 4.49438Z" fill="url(#paint1_linear_135_5)"/>
</g>
</g>
<defs>
<filter id="filter0_f_135_5" x="0" y="0" width="30.4863" height="36" filterUnits="userSpaceOnUse" color-interpolation-filters="sRGB">
<feFlood flood-opacity="0" result="BackgroundImageFix"/>
<feBlend mode="normal" in="SourceGraphic" in2="BackgroundImageFix" result="shape"/>
<feGaussianBlur stdDeviation="2" result="effect1_foregroundBlur_135_5"/>
</filter>
<linearGradient id="paint0_linear_135_5" x1="15.2431" y1="32" x2="15.2431" y2="4" gradientUnits="userSpaceOnUse">
<stop stop-color="#EA1C24"/>
<stop offset="1" stop-color="#FB624C"/>
</linearGradient>
<linearGradient id="paint1_linear_135_5" x1="15.2431" y1="32" x2="15.2431" y2="4" gradientUnits="userSpaceOnUse">
<stop stop-color="#EA1C24"/>
<stop offset="1" stop-color="#FB624C"/>
</linearGradient>
</defs>
</svg>
